<svg xmlns="http://www.w3.org/2000/svg" viewBox="0 0 32 32" width="256" height="256"><path fill="#e9eded" fill-rule="evenodd" stroke="#f17f53" stroke-linecap="round" stroke-linejoin="round" d="M26.496 7.504v21.5c0 .83-.669 1.5-1.5 1.5h-18c-.83 0-1.5-.67-1.5-1.5v-26c0-.831.67-1.5 1.5-1.5h13.5z" class="colore9eded svgShape colorStrokef17f53 svgStroke"></path><path style="line-height:normal;text-indent:0;text-align:start;text-decoration-line:none;text-decoration-style:solid;text-decoration-color:#000;text-transform:none;block-progression:tb;isolation:auto;mix-blend-mode:normal" fill="#f17f53" fill-rule="evenodd" d="M15.492 9a.5.5 0 0 0-.492.508V10h-4.5a.5.5 0 0 0-.5.5v7a.5.5 0 0 0 .5.5h2.305l-.78 2.336a.5.5 0 1 0 .95.316L13.859 18H15a.5.5 0 0 0 0 .002V21a.5.5 0 1 0 1 0v-2.998A.5.5 0 0 0 16 18h1.14l.885 2.652a.5.5 0 1 0 .95-.316L18.195 18H20.5a.5.5 0 0 0 .5-.5v-7a.5.5 0 0 0-.5-.5H16v-.492A.5.5 0 0 0 15.492 9zM11 11h9v6h-2.393a.5.5 0 0 0-.128-.012.5.5 0 0 0-.09.012H13.61a.5.5 0 0 0-.105-.012.5.5 0 0 0-.115.012H11v-6z" color="#000" font-family="sans-serif" font-weight="400" overflow="visible" class="colorf17f53 svgShape"></path><path fill="#f17f53" d="M5 24.004v5c0 1.108.892 2 2 2h18c1.108 0 2-.892 2-2v-5H5z" class="colorf17f53 svgShape"></path><path fill="#f17f53" stroke="#f17f53" stroke-linecap="round" stroke-linejoin="round" d="M26.496 7.504h-4.5c-.83 0-1.5-.67-1.5-1.5v-4.5" class="colorf17f53 svgShape colorStrokef17f53 svgStroke"></path><path style="line-height:normal;text-indent:0;text-align:start;text-decoration-line:none;text-decoration-style:solid;text-decoration-color:#000;text-transform:none;block-progression:tb;isolation:auto;mix-blend-mode:normal" fill="#e9eded" fill-rule="evenodd" d="M17.488 24.994a.5.5 0 0 0-.074.006h-.918a.5.5 0 1 0 0 1h.5v3.494a.5.5 0 1 0 1 0V26h.5a.5.5 0 1 0 0-1h-.922a.5.5 0 0 0-.086-.006zM9.496 25c-.774 0-1.411.603-1.484 1.36l-.002.01a.5.5 0 0 0-.014.124v3a.5.5 0 1 0 1 0v-1.588c.157.057.324.094.5.094.823 0 1.5-.677 1.5-1.5s-.677-1.5-1.5-1.5zm4 0c-.778 0-1.418.608-1.486 1.37a.5.5 0 0 0-.014.124v3a.5.5 0 1 0 1 0v-1.588c.157.057.324.094.5.094.823 0 1.5-.677 1.5-1.5s-.677-1.5-1.5-1.5zm-4 1c.282 0 .5.218.5.5 0 .282-.218.5-.5.5a.493.493 0 0 1-.5-.5v-.006a.493.493 0 0 1 .5-.494zm4 0c.282 0 .5.218.5.5 0 .282-.218.5-.5.5a.493.493 0 0 1-.5-.5v-.006a.493.493 0 0 1 .5-.494z" color="#000" font-family="sans-serif" font-weight="400" overflow="visible" class="colore9eded svgShape"></path></svg>