<svg xmlns="http://www.w3.org/2000/svg" viewBox="0 0 32 32" width="256" height="256"><path fill="#e9eded" fill-rule="evenodd" stroke="#25b39e" stroke-linecap="round" stroke-linejoin="round" d="M26.496 7.504v21.5c0 .83-.669 1.5-1.5 1.5h-18c-.83 0-1.5-.67-1.5-1.5v-26c0-.831.67-1.5 1.5-1.5h13.5z" class="colore9eded svgShape colorStroke25b39e svgStroke"></path><path fill="#25b39e" d="M5 24.004v5c0 1.108.892 2 2 2h18c1.108 0 2-.892 2-2v-5H5z" class="color25b39e svgShape"></path><path fill="#25b39e" stroke="#25b39e" stroke-linecap="round" stroke-linejoin="round" d="M26.496 7.504h-4.5c-.83 0-1.5-.67-1.5-1.5v-4.5" class="color25b39e svgShape colorStroke25b39e svgStroke"></path><path fill="#25b39e" d="M8.5 10a.5.5 0 0 0-.5.5v10a.5.5 0 0 0 .5.5h15a.5.5 0 0 0 .5-.5v-10a.5.5 0 0 0-.5-.5h-9.965a.5.5 0 0 0-.035 0h-5zm.5 1h4v1H9v-1zm5 0h4v1h-4v-1zm5 0h4v1h-4v-1zM9 13h4v1H9v-1zm5 0h4v1h-4v-1zm5 0h4v1h-4v-1zM9 15h4v1H9v-1zm5 0h4v1h-4v-1zm5 0h4v1h-4v-1zM9 17h4v1H9v-1zm5 0h4v1h-4v-1zm5 0h4v1h-4v-1zM9 19h4v1H9v-1zm5 0h4v1h-4v-1zm5 0h4v1h-4v-1z" color="#000" font-family="sans-serif" font-weight="400" overflow="visible" style="line-height:normal;text-indent:0;text-align:start;text-decoration-line:none;text-decoration-style:solid;text-decoration-color:#000;text-transform:none;block-progression:tb;isolation:auto;mix-blend-mode:normal" class="color25b39e svgShape"></path><path fill="#e9eded" fill-rule="evenodd" d="M13.488 24.998a.5.5 0 0 0-.492.508v3.988a.5.5 0 0 0 0 .006.5.5 0 0 0 0 .02.5.5 0 0 0 .002.023.5.5 0 0 0 .002.014.5.5 0 0 0 .314.408.5.5 0 0 0 .016.006.5.5 0 0 0 .139.027.5.5 0 0 0 .035.002h1.988a.5.5 0 1 0 0-1h-1.496v-3.494a.5.5 0 0 0-.508-.508zM8.518 25a.5.5 0 0 0-.051.002.5.5 0 0 0-.367.805l1.273 1.7-1.273 1.7a.5.5 0 0 0 .8.6l1.098-1.465 1.098 1.465a.5.5 0 0 0 .8-.6l-1.273-1.7 1.273-1.7a.5.5 0 0 0-.431-.805.5.5 0 0 0-.37.205l-1.097 1.465L8.9 25.207A.5.5 0 0 0 8.518 25zm9.935 0a.5.5 0 0 0-.062.012c-.77.06-1.387.704-1.387 1.488 0 .79.627 1.44 1.406 1.49a.5.5 0 0 0 .094.01h1c.286 0 .5.214.5.5 0 .286-.214.5-.5.5h-2a.5.5 0 1 0 0 1h2a.5.5 0 0 0 .103-.012 1.503 1.503 0 0 0 1.397-1.488c0-.786-.62-1.433-1.393-1.49a.5.5 0 0 0-.107-.01h-.965a.5.5 0 0 0-.035 0 .488.488 0 0 1-.5-.5c0-.286.214-.5.5-.5h2a.5.5 0 1 0 0-1h-1.965a.5.5 0 0 0-.035 0 .5.5 0 0 0-.05 0z" color="#000" font-family="sans-serif" font-weight="400" overflow="visible" style="line-height:normal;text-indent:0;text-align:start;text-decoration-line:none;text-decoration-style:solid;text-decoration-color:#000;text-transform:none;block-progression:tb;isolation:auto;mix-blend-mode:normal" class="colore9eded svgShape"></path></svg>