<svg xmlns="http://www.w3.org/2000/svg" viewBox="0 0 32 32" width="256" height="256"><path fill="#e9eded" fill-rule="evenodd" stroke="#f05542" stroke-linecap="round" stroke-linejoin="round" d="M26.496 7.504v21.5c0 .83-.669 1.5-1.5 1.5h-18c-.83 0-1.5-.67-1.5-1.5v-26c0-.831.67-1.5 1.5-1.5h13.5z" class="colore9eded svgShape colorStrokef05542 svgStroke"></path><path fill="#f05542" d="M5 24.004v5c0 1.108.892 2 2 2h18c1.108 0 2-.892 2-2v-5H5z" class="colorf05542 svgShape"></path><path fill="#4bbfeb" stroke="#4bbfeb" stroke-linecap="round" stroke-linejoin="round" d="M26.496 7.504h-4.5c-.83 0-1.5-.67-1.5-1.5v-4.5" class="color4bbfeb svgShape colorStroke4bbfeb svgStroke"></path><path fill="#f05542" fill-rule="evenodd" d="M7.5 3a.5.5 0 0 0-.5.5v4a.5.5 0 0 0 .5.5h5a.5.5 0 0 0 .5-.5v-4a.5.5 0 0 0-.5-.5h-5zm6.957 0a.5.5 0 0 0 .05 1H18.5a.5.5 0 1 0 0-1h-3.992a.5.5 0 0 0-.051 0zM8 4h4v3H8V4zm6.457 1a.5.5 0 0 0 .05 1H18.5a.5.5 0 1 0 0-1h-3.992a.5.5 0 0 0-.051 0zm0 2a.5.5 0 0 0 .05 1H18.5a.5.5 0 1 0 0-1h-3.992a.5.5 0 0 0-.051 0zm-7 2a.5.5 0 0 0 .05 1h4a.5.5 0 1 0 0-1h-4a.5.5 0 0 0-.05 0zm6 0a.5.5 0 0 0 .05 1h1a.5.5 0 1 0 0-1h-1a.5.5 0 0 0-.05 0zm3 0a.5.5 0 0 0 .05 1H24.5a.5.5 0 1 0 0-1h-7.992a.5.5 0 0 0-.051 0zm-9 2a.5.5 0 0 0 .05 1h6a.5.5 0 1 0 0-1h-6a.5.5 0 0 0-.05 0zm8 0a.5.5 0 0 0 .05 1h1a.5.5 0 1 0 0-1h-1a.5.5 0 0 0-.05 0zm3 0a.5.5 0 0 0 .05 1H24.5a.5.5 0 1 0 0-1h-5.992a.5.5 0 0 0-.051 0zm-11 2a.5.5 0 0 0 .05 1h8a.5.5 0 1 0 0-1h-8a.5.5 0 0 0-.05 0zm10 0a.5.5 0 0 0 .05 1h1a.5.5 0 1 0 0-1h-1a.5.5 0 0 0-.05 0zm3 0a.5.5 0 0 0 .05 1H24.5a.5.5 0 1 0 0-1h-3.992a.5.5 0 0 0-.051 0zm-13 2a.5.5 0 0 0 .05 1h4a.5.5 0 1 0 0-1h-4a.5.5 0 0 0-.05 0zm6 0a.5.5 0 0 0 .05 1h1a.5.5 0 1 0 0-1h-1a.5.5 0 0 0-.05 0zm3 0a.5.5 0 0 0 .05 1H24.5a.5.5 0 0 0 0-1h-7.992a.5.5 0 0 0-.051 0z" color="#000" font-family="sans-serif" font-weight="400" overflow="visible" style="line-height:normal;text-indent:0;text-align:start;text-decoration-line:none;text-decoration-style:solid;text-decoration-color:#000;text-transform:none;block-progression:tb;isolation:auto;mix-blend-mode:normal" class="colorf05542 svgShape"></path><path fill="#f05542" stroke="#f05542" stroke-linecap="round" stroke-linejoin="round" d="M26.496 7.504h-4.5c-.83 0-1.5-.67-1.5-1.5v-4.5" class="colorf05542 svgShape colorStrokef05542 svgStroke"></path><path fill="#e9eded" fill-rule="evenodd" d="M12.475 24.99a.5.5 0 0 0-.493.508v3.963a.5.5 0 0 0 .02.182.5.5 0 0 0 0 .002.5.5 0 0 0 .004.013.5.5 0 0 0 .014.035.5.5 0 0 0 .027.057.5.5 0 0 0 .02.031.5.5 0 0 0 .005.01.5.5 0 0 0 .024.03.5.5 0 0 0 .025.027.5.5 0 0 0 .012.013.5.5 0 0 0 .025.022.5.5 0 0 0 .014.012.5.5 0 0 0 .012.01.5.5 0 0 0 .035.023.5.5 0 0 0 .076.039.5.5 0 0 0 .027.01.5.5 0 0 0 .168.027h.998a.5.5 0 0 0 .149-.022c1.308-.108 2.36-1.164 2.36-2.478 0-1.31-1.047-2.365-2.35-2.479a.5.5 0 0 0-.15-.021h-.899a.5.5 0 0 0-.123-.014zM9.496 25c-.778 0-1.418.608-1.486 1.37a.5.5 0 0 0-.014.124v3a.5.5 0 1 0 1 0v-1.588c.157.057.324.094.5.094.823 0 1.5-.677 1.5-1.5s-.677-1.5-1.5-1.5zm9.066 0a1.58 1.58 0 0 0-1.572 1.574v.883a.5.5 0 0 0 0 .074V29.5a.5.5 0 1 0 1 0V28h1a.5.5 0 1 0 0-1h-1v-.426c0-.326.246-.574.573-.574h.927a.5.5 0 1 0 0-1h-.927zm-9.066 1c.282 0 .5.218.5.5 0 .282-.218.5-.5.5a.493.493 0 0 1-.5-.5v-.006a.493.493 0 0 1 .5-.494zm3.486.004h.438c.892 0 1.576.67 1.576 1.5s-.684 1.5-1.576 1.5h-.438v-3z" color="#000" font-family="sans-serif" font-weight="400" overflow="visible" style="line-height:normal;text-indent:0;text-align:start;text-decoration-line:none;text-decoration-style:solid;text-decoration-color:#000;text-transform:none;block-progression:tb;isolation:auto;mix-blend-mode:normal" class="colore9eded svgShape"></path></svg>