<svg xmlns="http://www.w3.org/2000/svg" viewBox="0 0 32 32" width="256" height="256"><path style="line-height:normal;text-indent:0;text-align:start;text-decoration-line:none;text-decoration-style:solid;text-decoration-color:#000;text-transform:none;block-progression:tb;isolation:auto;mix-blend-mode:normal" fill="#e9eded" d="M8.43 1045.365a.5.5 0 1 0 0 1c.892 0 1.578.67 1.578 1.5s-.686 1.5-1.578 1.5a.5.5 0 1 0 0 1c1.409 0 2.578-1.113 2.578-2.5s-1.17-2.5-2.578-2.5z" color="#000" font-family="sans-serif" font-weight="400" overflow="visible" transform="translate(0 -1020.362)" class="colore9eded svgShape"></path><path fill="#e9eded" fill-rule="evenodd" stroke="#4bbfeb" stroke-linecap="round" stroke-linejoin="round" d="M26.496 7.504v21.5c0 .83-.669 1.5-1.5 1.5h-18c-.83 0-1.5-.67-1.5-1.5v-26c0-.831.67-1.5 1.5-1.5h13.5z" class="colore9eded svgShape colorStroke4bbfeb svgStroke"></path><path fill="#4bbfeb" d="M5 24.004v5c0 1.108.892 2 2 2h18c1.108 0 2-.892 2-2v-5H5z" class="color4bbfeb svgShape"></path><path fill="#4bbfeb" stroke="#4bbfeb" stroke-linecap="round" stroke-linejoin="round" d="M26.496 7.504h-4.5c-.83 0-1.5-.67-1.5-1.5v-4.5" class="color4bbfeb svgShape colorStroke4bbfeb svgStroke"></path><path style="line-height:normal;text-indent:0;text-align:start;text-decoration-line:none;text-decoration-style:solid;text-decoration-color:#000;text-transform:none;block-progression:tb;isolation:auto;mix-blend-mode:normal" fill="#4bbfeb" fill-rule="evenodd" d="M7.457 4a.5.5 0 0 0 .05 1H12.5a.5.5 0 1 0 0-1H7.508a.5.5 0 0 0-.051 0zm0 2a.5.5 0 0 0 .05 1h9a.5.5 0 1 0 0-1h-9a.5.5 0 0 0-.05 0zm0 3a.5.5 0 0 0 .05 1h4a.5.5 0 1 0 0-1h-4a.5.5 0 0 0-.05 0zm6 0a.5.5 0 0 0 .05 1h1a.5.5 0 1 0 0-1h-1a.5.5 0 0 0-.05 0zm3 0a.5.5 0 0 0 .05 1H24.5a.5.5 0 1 0 0-1h-7.992a.5.5 0 0 0-.051 0zm-9 2a.5.5 0 0 0 .05 1h6a.5.5 0 1 0 0-1h-6a.5.5 0 0 0-.05 0zm8 0a.5.5 0 0 0 .05 1h1a.5.5 0 1 0 0-1h-1a.5.5 0 0 0-.05 0zm3 0a.5.5 0 0 0 .05 1H24.5a.5.5 0 1 0 0-1h-5.992a.5.5 0 0 0-.051 0zm-11 2a.5.5 0 0 0 .05 1h8a.5.5 0 1 0 0-1h-8a.5.5 0 0 0-.05 0zm10 0a.5.5 0 0 0 .05 1h1a.5.5 0 1 0 0-1h-1a.5.5 0 0 0-.05 0zm3 0a.5.5 0 0 0 .05 1H24.5a.5.5 0 1 0 0-1h-3.992a.5.5 0 0 0-.051 0zm-13 2a.5.5 0 0 0 .05 1h4a.5.5 0 1 0 0-1h-4a.5.5 0 0 0-.05 0zm6 0a.5.5 0 0 0 .05 1h1a.5.5 0 1 0 0-1h-1a.5.5 0 0 0-.05 0zm3 0a.5.5 0 0 0 .05 1H24.5a.5.5 0 0 0 0-1h-7.992a.5.5 0 0 0-.051 0z" color="#000" font-family="sans-serif" font-weight="400" overflow="visible" class="color4bbfeb svgShape"></path><path style="line-height:normal;text-indent:0;text-align:start;text-decoration-line:none;text-decoration-style:solid;text-decoration-color:#000;text-transform:none;block-progression:tb;isolation:auto;mix-blend-mode:normal" fill="#e9eded" fill-rule="evenodd" d="M21.508 1045.365a.5.5 0 1 0 0 1h1a.5.5 0 1 0 0-1h-1zm.008 4a.5.5 0 1 0 0 1h1a.5.5 0 1 0 0-1h-1z" color="#000" font-family="sans-serif" font-weight="400" overflow="visible" transform="translate(0 -1020.362)" class="colore9eded svgShape"></path><path style="line-height:normal;text-indent:0;text-align:start;text-decoration-line:none;text-decoration-style:solid;text-decoration-color:#000;text-transform:none;block-progression:tb;isolation:auto;mix-blend-mode:normal" fill="#e9eded" d="M21.584 1045.365c-1.41 0-2.576 1.113-2.576 2.5s1.167 2.5 2.576 2.5a.5.5 0 1 0 0-1c-.892 0-1.576-.67-1.576-1.5s.684-1.5 1.576-1.5a.5.5 0 1 0 0-1zm-6.076-.004c1.375 0 2.5 1.125 2.5 2.5s-1.125 2.5-2.5 2.5a2.508 2.508 0 0 1-2.5-2.5c0-1.375 1.125-2.5 2.5-2.5zm0 1c-.835 0-1.5.666-1.5 1.5 0 .835.665 1.5 1.5 1.5.834 0 1.5-.665 1.5-1.5 0-.834-.666-1.5-1.5-1.5z" color="#000" font-family="sans-serif" font-weight="400" overflow="visible" transform="translate(0 -1020.362)" class="colore9eded svgShape"></path><path style="line-height:normal;text-indent:0;text-align:start;text-decoration-line:none;text-decoration-style:solid;text-decoration-color:#000;text-transform:none;block-progression:tb;isolation:auto;mix-blend-mode:normal" fill="#e9eded" fill-rule="evenodd" d="M8.514 1045.365a.5.5 0 1 0 0 1h1a.5.5 0 1 0 0-1h-1zm-.006 4a.5.5 0 1 0 0 1h1a.5.5 0 1 0 0-1h-1z" color="#000" font-family="sans-serif" font-weight="400" overflow="visible" transform="translate(0 -1020.362)" class="colore9eded svgShape"></path><path style="line-height:normal;text-indent:0;text-align:start;text-decoration-line:none;text-decoration-style:solid;text-decoration-color:#000;text-transform:none;block-progression:tb;isolation:auto;mix-blend-mode:normal" fill="#e9eded" d="M9.438 1045.365a.5.5 0 1 0 0 1c.892 0 1.578.67 1.578 1.5s-.686 1.5-1.579 1.5a.5.5 0 1 0 0 1c1.41 0 2.579-1.113 2.579-2.5s-1.17-2.5-2.579-2.5z" color="#000" font-family="sans-serif" font-weight="400" overflow="visible" transform="translate(0 -1020.362)" class="colore9eded svgShape"></path><path style="line-height:normal;text-indent:0;text-align:start;text-decoration-line:none;text-decoration-style:solid;text-decoration-color:#000;text-transform:none;block-progression:tb;isolation:auto;mix-blend-mode:normal" fill="#e9eded" fill-rule="evenodd" d="M8.492 1045.352a.5.5 0 0 0-.492.507v4a.5.5 0 1 0 1 0v-4a.5.5 0 0 0-.508-.507z" color="#000" font-family="sans-serif" font-weight="400" overflow="visible" transform="translate(0 -1020.362)" class="colore9eded svgShape"></path></svg>